<svg width="121" height="99" viewBox="0 0 121 99" fill="none" xmlns="http://www.w3.org/2000/svg">
<path d="M52.0655 61.3804L52.022 61.3855L51.979 61.3943C49.4174 61.9212 46.9705 62.4461 44.6333 62.9474C40.525 63.8286 36.7554 64.6372 33.2969 65.2567C27.8722 66.2284 23.3533 66.7061 19.6795 66.2786C16.0454 65.8556 13.3051 64.5566 11.3197 62.0048C9.30143 59.4107 7.96542 55.3989 7.44675 49.3493C7.12662 45.6154 8.37741 41.1562 10.9778 36.4731C13.5702 31.8042 17.4611 26.9918 22.2944 22.5806C31.9699 13.75 45.3088 6.62755 59.3114 5.42701C73.357 4.22278 86.486 7.97812 96.2589 13.9936C106.076 20.0363 112.32 28.2306 112.969 35.7906C113.637 43.5904 112.675 48.9549 110.867 53.0267C109.058 57.1027 106.363 59.9757 103.384 62.7546C102.786 63.3126 102.177 63.8662 101.562 64.4242C96.194 69.3006 90.4595 74.5097 88.6562 85.8959C85.0841 85.3743 82.5879 83.7032 80.5194 81.4405C78.7693 79.526 77.3619 77.2393 75.876 74.8249C75.407 74.0629 74.9303 73.2883 74.4324 72.5086C72.3957 69.3186 70.0478 66.1305 66.5539 63.95C63.0309 61.7513 58.4518 60.6411 52.0655 61.3804Z" stroke="#C214AA" stroke-width="2"/>
<path d="M49.2987 65.1628L49.2557 65.1626L49.2129 65.166C46.3853 65.3907 43.6805 65.6282 41.0962 65.8551C36.5515 66.254 32.3797 66.6203 28.5694 66.827C22.5939 67.1511 17.6478 67.0716 13.728 66.1408C9.84458 65.2186 7.03904 63.4794 5.22048 60.5084C3.37538 57.494 2.45944 53.073 2.69012 46.6142C2.83285 42.6176 4.76831 38.0607 8.18702 33.4452C11.5955 28.8434 16.4235 24.2593 22.215 20.2219C33.8074 12.1407 49.1352 6.33492 64.4134 6.88057C79.7341 7.42774 93.4152 13.102 103.177 20.7307C112.983 28.3931 118.657 37.8721 118.368 45.9599C118.071 54.2887 116.332 59.8379 113.846 63.914C111.357 67.9955 108.069 70.6877 104.491 73.2393C103.773 73.7515 103.044 74.2575 102.309 74.7674C95.8766 79.2291 89.018 83.9866 85.6007 95.8102C78.5784 93.9724 76.0009 88.4981 73.1077 82.3534C72.7064 81.5012 72.299 80.636 71.8729 79.7659C70.0941 76.1338 67.9848 72.4749 64.5179 69.7312C61.0262 66.9678 56.2585 65.2086 49.2987 65.1628Z" stroke="#14C2C2" stroke-width="2"/>
<path d="M48.9388 60.4592L48.8963 60.4561L48.8536 60.4566C46.2039 60.4884 43.6684 60.5395 41.2463 60.5884C36.988 60.6743 33.0802 60.7531 29.5181 60.7069C23.9312 60.6345 19.3347 60.2527 15.7481 59.1499C12.1963 58.0579 9.70614 56.2826 8.20525 53.442C6.68109 50.5573 6.09815 46.4283 6.70884 40.4747C7.08491 36.8085 9.1574 32.7278 12.6212 28.6768C16.0736 24.6391 20.8474 20.7036 26.4866 17.3325C37.7747 10.5845 52.4 6.17315 66.587 7.62839C80.8162 9.08796 93.2035 15.1844 101.821 22.8413C110.481 30.5354 115.165 39.6366 114.403 47.0641C113.616 54.7405 111.659 59.752 109.102 63.3548C106.541 66.9632 103.321 69.2428 99.8333 71.3793C99.1332 71.8081 98.4227 72.2306 97.7065 72.6564C91.451 76.3759 84.7616 80.3534 80.8388 91.057C74.4847 88.9174 72.4363 83.7376 70.124 77.8903C69.8022 77.0767 69.4754 76.2501 69.1311 75.417C67.6956 71.9434 65.9497 68.4147 62.8759 65.6498C59.7793 62.8642 55.4311 60.936 48.9388 60.4592Z" stroke="#3F0C9D" stroke-width="2"/>
</svg>
