<svg width="459" height="95" viewBox="0 0 459 95" fill="none" xmlns="http://www.w3.org/2000/svg">
<mask id="mask0_1_201" style="mask-type:alpha" maskUnits="userSpaceOnUse" x="4" y="5" width="111" height="87">
<path d="M114.665 46.3707C111.464 77.5809 89.0656 66.9607 80.7306 91.4973C63.5738 86.773 73.4034 62.5168 48.1331 60.6611C19.0498 61.0094 2.50319 63.7387 4.98158 39.5772C6.60024 23.797 37.0632 2.87438 65.9566 5.83814C94.85 8.80191 116.284 30.5905 114.665 46.3707Z" fill="#D9D9D9"/>
</mask>
<g mask="url(#mask0_1_201)">
<circle cx="100" cy="60.5" r="2.5" fill="white"/>
<circle cx="91" cy="28.5" r="2.5" fill="white"/>
<circle cx="11" cy="36.5" r="2.5" fill="white"/>
<circle cx="34" cy="48.5" r="2.5" fill="white"/>
<circle cx="55" cy="11.5" r="2.5" fill="white"/>
<circle cx="67" cy="71.5" r="2.5" fill="white"/>
<rect x="66.5" y="33" width="1" height="40" fill="white"/>
<rect x="66.5" y="-19" width="1" height="40" fill="white"/>
<circle cx="88" cy="17.5" r="2.5" fill="white"/>
<rect x="87.5" y="-20" width="1" height="40" fill="white"/>
<circle cx="58" cy="25.5" r="2.5" fill="white"/>
<rect x="57.5" y="27" width="1" height="15" fill="white"/>
<circle cx="58" cy="50.5" r="2.5" fill="white"/>
<rect x="57.5" y="52" width="1" height="40" fill="white"/>
<circle cx="31" cy="13.5" r="2.5" fill="white"/>
<rect x="30.5" y="2" width="1" height="40" fill="white"/>
<rect x="40.5" y="-18" width="1" height="40" fill="white"/>
<circle cx="41" cy="29.5" r="2.5" fill="white"/>
<rect x="40.5" y="31" width="1" height="40" fill="white"/>
<circle cx="15" cy="46.5" r="2.5" fill="white"/>
<rect x="14.5" y="48" width="1" height="40" fill="white"/>
<circle cx="23" cy="26.5" r="2.5" fill="white"/>
<rect x="22.5" y="28" width="1" height="40" fill="white"/>
<circle cx="76" cy="53.5" r="2.5" fill="white"/>
<circle cx="76" cy="88.5" r="2.5" fill="white"/>
<rect x="75.5" y="55" width="1" height="40" fill="white"/>
<circle cx="76" cy="7.5" r="2.5" fill="white"/>
<rect x="75.5" y="-1" width="1" height="40" fill="white"/>
<circle cx="100" cy="10.5" r="2.5" fill="white"/>
<rect x="99.5" y="12" width="1" height="40" fill="white"/>
<circle cx="109" cy="45.5" r="2.5" fill="white"/>
<rect x="108.5" y="47" width="1" height="40" fill="white"/>
<circle cx="108" cy="28.5" r="2.5" fill="white"/>
<circle cx="92" cy="46.5" r="2.5" fill="white"/>
<circle cx="116" cy="41.5" r="2.5" fill="white"/>
<circle cx="86" cy="67.5" r="2.5" fill="white"/>
<rect x="85.5" y="69" width="1" height="40" fill="white"/>
<path d="M94.5 88V67L99.5 61" stroke="white"/>
<path d="M85.5 56V35L90.5 29" stroke="white"/>
<path d="M5.5 64V43L10.5 37" stroke="white"/>
<path d="M28.5 76V55L33.5 49" stroke="white"/>
<path d="M49.5 69V18L54.5 12" stroke="white"/>
</g>
<path d="M147.751 18.6777H158.31C161.874 25.1191 165.227 30.9961 168.37 36.3086C171.536 41.599 174.978 47.9186 178.697 55.2676V36.9062C178.697 30.1107 178.619 25.1745 178.464 22.0977H175.044C174.756 21.3451 174.613 20.6478 174.613 20.0059C174.613 19.541 174.723 19.209 174.945 19.0098C175.188 18.7884 175.575 18.6777 176.107 18.6777H188.591C188.857 19.3418 188.989 19.9837 188.989 20.6035C188.989 21.1569 188.879 21.5443 188.657 21.7656C188.436 21.987 188.049 22.0977 187.495 22.0977H184.806C184.651 25.1745 184.573 30.2435 184.573 37.3047V61.3105C184.573 62.6165 184.374 63.4466 183.976 63.8008C183.599 64.1549 182.703 64.332 181.286 64.332C178.542 64.332 176.959 64.2214 176.538 64C176.14 63.8008 173.45 59.6947 168.47 51.6816C163.512 43.6686 159.35 36.1758 155.986 29.2031C155.986 47.0443 156.063 57.5033 156.218 60.5801H159.472C159.76 61.2441 159.904 61.8861 159.904 62.5059C159.904 63.0592 159.793 63.4466 159.572 63.668C159.35 63.8893 158.952 64 158.376 64H146.025C145.737 63.2474 145.593 62.5501 145.593 61.9082C145.593 61.4434 145.704 61.1113 145.925 60.9121C146.169 60.6908 146.556 60.5801 147.087 60.5801H149.876C150.031 57.5033 150.109 49.612 150.109 36.9062C150.109 30.1107 150.02 25.1745 149.843 22.0977H146.689C146.401 21.3451 146.257 20.6478 146.257 20.0059C146.257 19.541 146.368 19.209 146.589 19.0098C146.833 18.7884 147.22 18.6777 147.751 18.6777ZM209.841 35.0801C207.627 35.0801 205.945 35.877 204.794 37.4707C203.643 39.0423 203.012 41.5104 202.902 44.875H206.322C209.952 44.875 212.42 44.8086 213.726 44.6758C215.054 44.5208 215.818 44.2773 216.017 43.9453C216.238 43.6133 216.349 42.9935 216.349 42.0859C216.349 39.8945 215.795 38.179 214.689 36.9395C213.582 35.6999 211.966 35.0801 209.841 35.0801ZM211.103 30.6309C215.22 30.6309 218.275 31.6048 220.267 33.5527C222.259 35.5007 223.255 38.7103 223.255 43.1816C223.255 45.1517 222.901 46.5241 222.193 47.2988C221.484 48.0736 219.935 48.4609 217.544 48.4609H202.868C202.913 52.069 203.632 54.9023 205.027 56.9609C206.443 59.0195 208.933 60.0488 212.497 60.0488C215.818 60.0488 218.905 59.1855 221.761 57.459C222.713 58.4108 223.189 59.418 223.189 60.4805C223.189 61.9635 221.96 63.0039 219.503 63.6016C217.068 64.1992 214.312 64.498 211.236 64.498C205.569 64.498 201.496 63.3027 199.017 60.9121C196.56 58.4993 195.331 54.4486 195.331 48.7598C195.331 43.1595 196.715 38.7435 199.482 35.5117C202.271 32.2578 206.144 30.6309 211.103 30.6309ZM257.72 50.6523C257.72 55.1016 257.897 57.8353 258.251 58.8535C258.605 59.8717 259.314 60.3255 260.376 60.2148C260.642 60.7461 260.775 61.2663 260.775 61.7754C260.775 62.5944 260.144 63.2253 258.882 63.668C257.62 64.1107 256.392 64.332 255.197 64.332C254.422 64.332 253.857 64.1771 253.503 63.8672C253.149 63.5573 252.596 62.7161 251.843 61.3438C250.072 62.362 248.235 63.1699 246.331 63.7676C244.45 64.3652 242.469 64.6641 240.388 64.6641C237.643 64.6641 235.507 63.9115 233.98 62.4062C232.474 60.8789 231.722 58.0898 231.722 54.0391C231.722 46.1367 231.678 41.3444 231.589 39.6621C231.523 37.9577 231.346 36.7845 231.058 36.1426C230.77 35.5007 230.394 35.1022 229.929 34.9473C229.464 34.7923 228.955 34.7148 228.402 34.7148C228.114 34.25 227.97 33.7298 227.97 33.1543C227.97 32.3796 228.512 31.8483 229.597 31.5605C230.682 31.2728 232.187 31.1289 234.113 31.1289C235.64 31.1289 236.68 31.2285 237.234 31.4277C237.809 31.6048 238.163 31.9147 238.296 32.3574C238.451 32.778 238.529 34.2279 238.529 36.707V49.2246C238.529 53.7624 239.027 56.7285 240.023 58.123C241.041 59.5176 242.447 60.2148 244.239 60.2148C245.501 60.2148 246.73 59.9492 247.925 59.418C249.12 58.8867 249.917 58.1452 250.316 57.1934C250.736 56.2415 250.947 54.4043 250.947 51.6816C250.947 45.3509 250.913 41.3665 250.847 39.7285C250.803 38.0905 250.648 36.9284 250.382 36.2422C250.139 35.5339 249.807 35.1022 249.386 34.9473C248.965 34.7923 248.423 34.7148 247.759 34.7148C247.471 34.25 247.327 33.7298 247.327 33.1543C247.327 32.3796 247.892 31.8483 249.021 31.5605C250.172 31.2728 251.599 31.1289 253.304 31.1289C254.831 31.1289 255.872 31.2285 256.425 31.4277C257.001 31.6048 257.355 31.9368 257.488 32.4238C257.642 32.9108 257.72 34.3939 257.72 36.873V50.6523ZM266.585 32.7891C266.585 32.1914 266.818 31.8151 267.282 31.6602C267.747 31.4831 270.68 31.306 276.081 31.1289C276.214 32.1471 276.214 33.5085 276.081 35.2129C278.538 33.5527 280.896 32.4017 283.154 31.7598C285.433 31.1178 287.503 30.7969 289.363 30.7969C289.982 30.7969 290.392 30.8743 290.591 31.0293C290.812 31.1621 290.923 31.472 290.923 31.959C290.923 32.9108 290.768 33.929 290.458 35.0137C290.17 36.0983 289.816 36.7845 289.396 37.0723C288.975 37.36 288.278 37.5814 287.304 37.7363C286.33 37.8913 285.754 37.9245 285.577 37.8359C285.422 37.7474 284.924 37.1387 284.083 36.0098C282.113 36.0098 280.519 36.6406 279.302 37.9023C278.085 39.1419 277.476 41.6543 277.476 45.4395C277.498 52.235 277.586 57.2819 277.741 60.5801H282.423C282.689 61.1556 282.822 61.7754 282.822 62.4395C282.822 63.0371 282.7 63.4466 282.456 63.668C282.213 63.8893 281.748 64 281.062 64H267.017C266.729 63.2917 266.585 62.6276 266.585 62.0078C266.585 61.5208 266.707 61.1667 266.95 60.9453C267.194 60.7018 267.592 60.5801 268.146 60.5801H270.437C270.614 57.2819 270.702 52.9655 270.702 47.6309C270.702 41.1009 270.448 37.3158 269.939 36.2754C269.43 35.235 268.456 34.7148 267.017 34.7148C266.729 34.0951 266.585 33.4531 266.585 32.7891ZM310.181 60.2148C312.704 60.2148 314.53 59.263 315.659 57.3594C316.788 55.4557 317.353 52.5228 317.353 48.5605C317.353 44.0007 316.766 40.6139 315.593 38.4004C314.442 36.1868 312.45 35.0801 309.616 35.0801C307.093 35.0801 305.267 36.0319 304.138 37.9355C303.009 39.8392 302.445 42.7832 302.445 46.7676C302.445 51.3053 303.02 54.681 304.171 56.8945C305.344 59.1081 307.348 60.2148 310.181 60.2148ZM308.919 64.6641C304.116 64.6641 300.585 63.3913 298.327 60.8457C296.07 58.3001 294.941 54.4596 294.941 49.3242C294.941 43.4141 296.302 38.821 299.025 35.5449C301.769 32.2689 305.721 30.6309 310.878 30.6309C315.682 30.6309 319.212 31.9036 321.47 34.4492C323.728 36.9948 324.857 40.8464 324.857 46.0039C324.857 51.8919 323.484 56.474 320.739 59.75C318.017 63.026 314.077 64.6641 308.919 64.6641ZM333.058 18.6777H346.704C347.767 22.5293 349.25 27.4212 351.154 33.3535C353.057 39.2858 354.54 44.1335 355.603 47.8965C356.665 51.6374 357.274 53.5078 357.429 53.5078C357.584 53.5078 359.067 48.7376 361.878 39.1973C364.689 29.6569 366.571 22.8171 367.523 18.6777H380.97C381.236 19.3418 381.368 19.9837 381.368 20.6035C381.368 21.1569 381.258 21.5443 381.036 21.7656C380.815 21.987 380.428 22.0977 379.874 22.0977H377.683C377.594 26.1706 377.661 32.8333 377.882 42.0859C378.103 51.3385 378.325 57.5033 378.546 60.5801H381.767C382.055 61.2441 382.198 61.8861 382.198 62.5059C382.198 63.0592 382.088 63.4466 381.866 63.668C381.645 63.8893 381.247 64 380.671 64H367.655C367.368 63.2474 367.224 62.5501 367.224 61.9082C367.224 61.4434 367.335 61.1113 367.556 60.9121C367.799 60.6908 368.187 60.5801 368.718 60.5801H370.677C370.854 56.7285 370.777 45.0189 370.445 25.4512C368.718 32.0918 366.726 38.8542 364.468 45.7383C362.21 52.6224 360.716 56.6953 359.986 57.957C359.255 59.2188 358.071 59.8496 356.433 59.8496C354.086 59.8496 352.769 59.7611 352.482 59.584C352.216 59.4069 350.733 55.5443 348.032 47.9961C345.354 40.4258 342.997 32.8555 340.96 25.2852C340.894 44.9635 340.938 56.7285 341.093 60.5801H344.181C344.447 61.2441 344.579 61.8861 344.579 62.5059C344.579 63.0592 344.469 63.4466 344.247 63.668C344.026 63.8893 343.639 64 343.085 64H330.866C330.601 63.2474 330.468 62.5501 330.468 61.9082C330.468 61.4434 330.579 61.1113 330.8 60.9121C331.044 60.6908 331.431 60.5801 331.962 60.5801H334.386C334.629 57.5033 334.851 51.3385 335.05 42.0859C335.271 32.8333 335.36 26.1706 335.316 22.0977H331.962C331.697 21.3451 331.564 20.6478 331.564 20.0059C331.564 19.541 331.674 19.209 331.896 19.0098C332.139 18.7884 332.527 18.6777 333.058 18.6777ZM407.997 61.3438C406.138 62.4284 404.223 63.2585 402.253 63.834C400.305 64.3874 398.391 64.6641 396.509 64.6641C393.521 64.6641 391.296 63.9668 389.835 62.5723C388.374 61.1556 387.644 59.0638 387.644 56.2969C387.644 52.9102 388.85 50.3203 391.263 48.5273C393.676 46.7344 397.405 45.8379 402.452 45.8379H407.333C407.2 41.9421 406.636 39.2305 405.64 37.7031C404.666 36.1758 402.928 35.4121 400.427 35.4121C399.099 35.4121 397.826 35.5449 396.609 35.8105C395.967 37.0944 395.579 37.7806 395.447 37.8691C395.336 37.9577 394.705 38.1569 393.554 38.4668C392.403 38.7546 391.595 38.6992 391.13 38.3008C390.687 37.8802 390.223 37.1276 389.736 36.043C389.271 34.9583 389.038 34.084 389.038 33.4199C389.038 32.9772 389.215 32.6341 389.57 32.3906C389.946 32.1471 391.44 31.8483 394.052 31.4941C396.664 31.14 399.442 30.9629 402.386 30.9629C406.304 30.9629 409.193 31.638 411.052 32.9883C412.933 34.3385 413.874 36.8177 413.874 40.4258V50.6523C413.874 55.3893 414.073 58.278 414.472 59.3184C414.892 60.3587 415.579 60.7793 416.53 60.5801C416.796 61.0671 416.929 61.543 416.929 62.0078C416.929 62.7604 416.453 63.3359 415.501 63.7344C414.572 64.1328 413.31 64.332 411.716 64.332C410.941 64.332 410.344 64.2324 409.923 64.0332C409.525 63.8561 408.883 62.9596 407.997 61.3438ZM407.333 50.1211C405.43 49.7891 403.46 49.623 401.423 49.623C398.9 49.623 397.129 50.0436 396.111 50.8848C395.114 51.7259 394.616 53.054 394.616 54.8691C394.616 56.64 395.059 57.9792 395.945 58.8867C396.852 59.7721 398.247 60.2148 400.128 60.2148C401.589 60.2148 402.95 59.9271 404.212 59.3516C405.474 58.776 406.304 57.9792 406.702 56.9609C407.123 55.9206 407.333 54.2936 407.333 52.0801V50.1211ZM432.9 58.3223C433.719 58.8757 434.682 59.3294 435.788 59.6836C436.895 60.0378 438.124 60.2148 439.474 60.2148C442.418 60.2148 444.454 59.3184 445.583 57.5254C446.712 55.7324 447.277 52.6335 447.277 48.2285C447.277 43.4251 446.679 40.0384 445.484 38.0684C444.31 36.0762 442.407 35.0801 439.773 35.0801C438.467 35.0801 437.271 35.3346 436.187 35.8438C435.124 36.3529 434.305 37.2161 433.73 38.4336C433.176 39.6289 432.9 41.3112 432.9 43.4805V58.3223ZM431.173 31.1289C431.306 32.0586 431.306 33.0326 431.173 34.0508C432.811 33.0326 434.571 32.2135 436.452 31.5938C438.334 30.9518 440.448 30.6309 442.794 30.6309C446.823 30.6309 449.822 31.7376 451.792 33.9512C453.762 36.1647 454.747 39.8503 454.747 45.0078C454.747 51.6927 453.408 56.64 450.73 59.8496C448.073 63.0592 444.133 64.6641 438.909 64.6641C437.493 64.6641 436.297 64.5866 435.323 64.4316C434.349 64.2767 433.542 64.0996 432.9 63.9004C432.922 68.1283 433.01 71.8913 433.165 75.1895H437.515C437.78 75.765 437.913 76.3848 437.913 77.0488C437.913 77.6465 437.792 78.056 437.548 78.2773C437.305 78.4987 436.84 78.6094 436.154 78.6094H422.441C422.153 77.901 422.009 77.237 422.009 76.6172C422.009 76.1302 422.131 75.765 422.374 75.5215C422.618 75.3001 423.016 75.1895 423.57 75.1895H425.861C426.038 71.8913 426.126 67.4199 426.126 61.7754V47.6309C426.126 41.1009 425.872 37.3158 425.363 36.2754C424.853 35.235 423.879 34.7148 422.441 34.7148C422.153 34.0951 422.009 33.4531 422.009 32.7891C422.009 32.1914 422.241 31.8151 422.706 31.6602C423.171 31.4831 425.993 31.306 431.173 31.1289Z" fill="white"/>
</svg>
